<svg id="Capa_1" enable-background="new 0 0 512 512" height="512" viewBox="0 0 512 512" width="512" xmlns="http://www.w3.org/2000/svg"><g><path d="m439.36 77.37-17.82 35.33c-78.49 155.64-291.81 177.63-400.41 41.29 3.74-8.58 7.93-16.92 12.55-24.99 44.12-77.07 127.16-129 222.32-129 71.89 0 136.87 29.64 183.36 77.37z" fill="#92eaff"/><g><path d="m159.9 239.34c-52.13-10.55-101.59-38.67-138.77-85.35 3.74-8.58 7.93-16.92 12.55-24.99 28.36 49.54 72.81 88.7 126.22 110.34z" fill="#63dbfa"/></g><g><path d="m512 256c0 14.91-1.28 29.53-3.73 43.74-1.22 7.12-2.74 14.14-4.55 21.04-10.62 40.77-31.05 77.58-58.61 107.77-46.66 51.1-113.74 83.22-188.32 83.45h-.79c-74.9 0-142.29-32.17-189.11-83.45-14.46-15.84-26.96-33.5-37.1-52.61-9.2-17.3-16.46-35.78-21.52-55.16-1.8-6.9-3.32-13.92-4.54-21.04-1.46-8.42-2.5-16.99-3.1-25.68-.42-5.96-.63-11.99-.63-18.06 0-28.48 4.65-55.88 13.24-81.46 2.34-6.99 4.98-13.84 7.89-20.55 7.38.12 14.67 3.44 19.54 8.99-.29-8.51 7.86-15.75 16.36-15.15-3.78-13.15 3.47-30.48 15.68-36.65s28.56-2.45 36.91 8.4c5.95-7.33 17.73-11.37 26.81-8.81 9.09 2.56 16.28 10.84 17.54 20.19 11.14-6.99 29.53-3.51 38.5 6.1 1.83-10.32 9.55-19.8 19.95-21.14s21.33 4.7 25.72 14.23c5.38-2.59 11.64-3.47 17.86-3 5.73.43 11.43 2.01 16.36 4.44-.12-10.49 7.69-20.79 17.45-24.64 9.77-3.84 21.77-1.04 28.83 6.72 1.11-8.49 7.85-19.66 15.59-23.33 7.73-3.67 17.32-3.13 24.59 1.39 1.07-9.87 8.34-20.5 17.06-25.25 8.71-4.75 19.76-4.93 28.63-.48s15.32 13.42 16.72 23.24c5.22-5.99 11.05-9.75 18.13-11.87 4.53 4.64 8.88 9.45 13.03 14.43 9.7 11.57 18.38 24.02 25.93 37.2 12.98 22.67 22.59 47.52 28.15 73.86 3.46 16.36 5.35 33.28 5.52 50.62.01.84.01 1.68.01 2.52z" fill="#fff"/><path d="m512 256c0 14.91-1.28 29.53-3.73 43.74-1.22 7.12-2.74 14.14-4.55 21.04-10.62 40.77-31.05 77.58-58.61 107.77-46.66 51.1-113.74 83.22-188.32 83.45h-.79v-384.85c5.73.43 11.43 2.01 16.36 4.44-.12-10.49 7.69-20.79 17.45-24.64 9.77-3.84 21.77-1.04 28.83 6.72 1.11-8.49 7.85-19.66 15.59-23.33 7.73-3.67 17.32-3.13 24.59 1.39 1.07-9.87 8.34-20.5 17.06-25.25 8.71-4.75 19.76-4.93 28.63-.48s15.32 13.42 16.72 23.24c5.22-5.99 11.05-9.75 18.13-11.87 2.55 2.61 5.04 5.28 7.46 8 1.91 2.11 3.76 4.25 5.57 6.43 9.7 11.57 18.38 24.02 25.93 37.2 9.5 16.59 17.2 34.35 22.81 53.01 2.07 6.84 3.85 13.79 5.34 20.85 2.23 10.54 3.81 21.32 4.69 32.29.49 6.05.77 12.17.83 18.33.01.84.01 1.68.01 2.52z" fill="#dff7fd"/><path d="m512 256c0 14.91-1.28 29.53-3.73 43.74-1.22 7.12-2.74 14.14-4.55 21.04-10.62 40.77-31.05 77.58-58.61 107.77-46.66 51.1-113.74 83.22-188.32 83.45h-.79c-74.9 0-142.29-32.17-189.11-83.45-14.46-15.84-26.96-33.5-37.1-52.61-9.2-17.3-16.46-35.78-21.52-55.16-1.8-6.9-3.32-13.92-4.54-21.04-1.46-8.42-2.5-16.99-3.1-25.68-.42-5.96-.63-11.99-.63-18.06 0-28.48 4.65-55.88 13.24-81.46 8.63 1.7 16.65 6.71 21.42 14.13 5.02-4.41 11.53-4.93 18.01-3.29-1.92-5.3-.56-12.24 3.25-16.39s10-5.94 15.44-4.48c-1.91-7.27-2.99-13.59-.44-20.66 2.69-7.44 9.73-13.11 17.57-14.14 7.84-1.04 16.12 2.61 20.64 9.1 4.09-6.16 12.76-9.65 19.84-7.52 7.07 2.14 12.34 9.22 12.34 16.61 3.98 1.3 7.45 2.13 11.43 3.43 4.84-4.81 13.2-6.35 19.86-4.87 6.67 1.48 12.43 6.52 14.78 12.93 5.49-1.32 10.11-1.45 15.6-2.78 1.26-6.32 6.4-11.86 12.78-12.83 6.37-.96 13.18 2.43 16.25 8.1 7.39-3.67 16.07-3.52 23.99-.79 4.76 1.65 9.25 4.23 13.01 7.47 5.28-6.56 14.78-9.67 23.14-8.71-.26-6.44 2.59-13.59 8.69-15.66s13.44.3 17.16 5.56c3.38-4.61 11.21-6.39 16.69-4.74-2.14-3.75-1.9-8.12-.48-12.2 2.09-6 7.46-10.74 13.68-12.07 6.21-1.32 13.05.81 17.4 5.44 1.45-10.83 12.04-18.54 22.88-19.91 10.84-1.36 22.19 5.3 26.29 15.43 5.52-2.09 11.19-.99 16.22 2.11 3.83-10.27 11.89-18.19 21.71-22.01 9.7 11.57 18.38 24.02 25.93 37.2 12.98 22.67 22.59 47.52 28.15 73.86 3.46 16.36 5.35 33.28 5.52 50.62.01.84.01 1.68.01 2.52z" fill="#dff7fd"/><path d="m512 256c0 14.91-1.28 29.53-3.73 43.74-1.22 7.12-2.74 14.14-4.55 21.04-10.62 40.77-31.05 77.58-58.61 107.77-46.66 51.1-113.74 83.22-188.32 83.45h-.79v-360.91c4.76 1.65 9.25 4.23 13.01 7.47 5.28-6.56 14.78-9.67 23.14-8.71-.26-6.44 2.59-13.59 8.69-15.66s13.44.3 17.16 5.56c3.38-4.61 11.21-6.39 16.69-4.74-2.14-3.75-1.9-8.12-.48-12.2 2.09-6 7.46-10.74 13.68-12.07 6.21-1.32 13.05.81 17.4 5.44 1.45-10.83 12.04-18.54 22.88-19.91 10.84-1.36 22.19 5.3 26.29 15.43 5.52-2.09 11.19-.99 16.22 2.11 3.83-10.27 11.89-18.19 21.71-22.01 9.7 11.57 18.38 24.02 25.93 37.2 12.98 22.67 22.59 47.52 28.15 73.86 3.46 16.36 5.35 33.28 5.52 50.62.01.84.01 1.68.01 2.52z" fill="#c5f2f9"/><path d="m511.16 235.15-212.37-.04-42.79-.01h-15.62l15.62-16.29 91.3-95.22 14.26 14.27c.06.07 5.3 5.34 11.08 11.12 3.46 3.47 9.12 3.4 12.52-.14l61.66-63.47c1.91 2.11 3.76 4.25 5.57 6.43 9.7 11.57 18.38 24.02 25.93 37.2 12.98 22.67 22.59 47.52 28.15 73.86 2.23 10.54 3.81 21.32 4.69 32.29z" fill="#7e7f92"/><path d="m511.16 235.15-212.37-.04 48.32-50.15 14.45 14.45c.06.08 5.3 5.33 11.08 11.1 3.46 3.48 9.12 3.42 12.52-.13l71.16-73.31 44.81 44.94c2.07 6.84 3.85 13.79 5.34 20.85 2.23 10.54 3.81 21.32 4.69 32.29z" fill="#6e6f83"/><path d="m512 256c0 14.91-1.28 29.53-3.73 43.74-1.22 7.12-2.74 14.14-4.55 21.04-10.62 40.77-31.05 77.58-58.61 107.77-17.85 19.55-38.69 36.31-61.79 49.58-20.16 11.59-42.06 20.51-65.2 26.27-4.78 1.2-9.61 2.26-14.5 3.17-6.01 1.14-12.1 2.05-18.25 2.75-9.38 1.09-18.92 1.65-28.58 1.68h-.79c-26.96 0-52.95-4.17-77.35-11.9-11.13-3.52-21.92-7.77-32.33-12.72-.04-.02-.09-.04-.13-.06-6.98-3.33-13.79-6.95-20.4-10.87-2.9-1.71-5.75-3.48-8.57-5.3-2.78-1.8-5.52-3.64-8.22-5.55-6.06-4.25-11.92-8.75-17.57-13.51-6.31-5.29-12.35-10.88-18.1-16.75-2.19-2.22-4.34-4.49-6.44-6.79-3.04-3.33-5.99-6.74-8.84-10.23-7.87-9.57-15.05-19.73-21.46-30.39-1.6-2.65-3.15-5.33-4.65-8.04-.73-1.31-1.45-2.63-2.15-3.95-2.15-4.05-4.2-8.16-6.13-12.34-5.72-12.31-10.48-25.16-14.2-38.45-.41-1.45-.81-2.91-1.19-4.37-1.8-6.9-3.32-13.92-4.54-21.04-1.46-8.42-2.5-16.99-3.1-25.68-.42-5.96-.63-11.99-.63-18.06 0-7.02.28-13.97.84-20.84h510.32c.49 6.05.77 12.16.83 18.32.01.84.01 1.68.01 2.52z" fill="#b6e337"/><path d="m512 256c0 14.91-1.28 29.53-3.73 43.74-1.22 7.12-2.74 14.14-4.55 21.04-1.55 5.96-3.32 11.84-5.28 17.63-3.73 10.97-8.18 21.6-13.3 31.84-6.3 12.63-13.62 24.67-21.86 36.01-5.64 7.77-11.71 15.22-18.17 22.29-5.9 6.46-12.13 12.62-18.66 18.45-1.53 1.36-3.07 2.71-4.63 4.03-33.17 28.25-73.65 48.16-118.2 56.54l-.84-.34c-19.33-9.02-58.98-21.31-96.61-55.45-4.87-4.41-11.83-13.98-8.97-26.3 2.77-11.92 31.96-31.83 45.62-41.76 13.66-9.92 32.61-20.61 42.65-32.73 5.38-6.5 6.28-12.94.23-22.04-5.62-8.47-52.03-31.82-68.52-42.01-16.5-10.18-19.21-15.33-20.24-19.97s.52-8.89 5.87-12.81c8.83-6.46 33.85-14.77 47.48-19h260.87c.49 6.06.77 12.15.83 18.32.01.84.01 1.68.01 2.52z" fill="#6cdc2d"/><g><g><path d="m426.321 246.242h8.865v53.548h-8.865z" fill="#ec771b"/></g><path d="m430.754 246.242h4.433v53.548h-4.433z" fill="#c55732"/><path d="m426.321 246.242h4.433v36.84h-4.433z" fill="#c55732"/><path d="m430.754 246.242h4.433v36.84h-4.433z" fill="#a44e3e"/><g><path d="m464.009 259.744c.091 9.098-7.559 16.54-16.653 16.54h-33.201c-9.098 0-16.744-7.442-16.657-16.54.047-4.505 1.911-8.574 4.898-11.507 1.416-1.394 2.14-3.352 2.016-5.339-.022-.342-.033-.691-.033-1.041 0-5.535 2.744-10.43 6.951-13.393 1.889-1.332 3.05-3.468 3.05-5.779v-.269c0-9.044 7.329-16.377 16.373-16.377.095 0 .186.004.28.004 4.491.073 8.512 1.991 11.416 5.008 2.9 3.021 4.68 7.144 4.68 11.635 0 2.311 1.161 4.447 3.05 5.779 4.203 2.962 6.951 7.857 6.951 13.393 0 .349-.011.699-.033 1.041-.127 1.987.597 3.945 2.016 5.339 2.985 2.931 4.852 7 4.896 11.506z" fill="#43af3e"/></g><g><g><path d="m464.009 259.744c.091 9.098-7.559 16.54-16.653 16.54h-24.46c-4.305 0-7.926-7.442-7.883-16.54.022-4.505.903-8.574 2.318-11.507.67-1.394 1.012-3.352.953-5.339-.011-.342-.015-.691-.015-1.041 0-5.535 1.299-10.43 3.29-13.393.892-1.332 1.441-3.468 1.441-5.779v-.269c0-9.044 3.472-16.377 7.752-16.377.044 0 .087.004.131.004h.149c4.491.073 8.512 1.991 11.416 5.008 2.9 3.021 4.68 7.144 4.68 11.635 0 2.311 1.161 4.447 3.05 5.779 4.203 2.962 6.951 7.857 6.951 13.393 0 .349-.011.699-.033 1.041-.127 1.987.597 3.945 2.016 5.339 2.986 2.931 4.853 7 4.897 11.506z" fill="#00a23e"/></g></g><path d="m464.009 259.744c.091 9.098-7.559 16.54-16.653 16.54h-16.602v-70.245c.095 0 .186.004.28.004 4.491.073 8.512 1.991 11.416 5.008 2.9 3.021 4.68 7.144 4.68 11.635 0 2.311 1.161 4.447 3.05 5.779 4.203 2.962 6.951 7.857 6.951 13.393 0 .349-.011.699-.033 1.041-.127 1.987.597 3.945 2.016 5.339 2.984 2.931 4.851 7 4.895 11.506z" fill="#008839"/></g><path d="m235.31 235.12-38.82.01-169.71.03h-25.94c.45-5.65 1.09-11.26 1.91-16.8l89.03-89.27 47.31 48.7c2.26 2.35 6.02 2.4 8.32.09 3.84-3.84 7.32-7.34 7.36-7.39l9.48-9.48z" fill="#7e7f92"/><path d="m196.49 235.13-169.71.03 65.01-65.19 47.3 48.72c2.26 2.36 6.02 2.4 8.32.09 3.84-3.84 7.32-7.33 7.36-7.38l3.06-3.06c5.26.07 8.14.1 13.4.17z" fill="#6e6f83"/><g><path d="m383.32 478.13c-20.237 11.636-42.219 20.58-65.455 26.342-9.154 2.27-18.502-1.743-28.015-.491-1.549.206-3.102 6.187-4.66 6.366-9.322 1.066-18.795 1.628-28.4 1.653h-.79c-26.96 0-52.95-4.17-77.35-11.9-11.13-3.52-21.92-7.77-32.33-12.72-.04-.02-.09-.04-.13-.06-25.52-20.9-29.45-38.98-26.86-58.32 7.5-56 122.5-62.83 122.5-91.5 0-15.83-27.38-21.25-55.5-41.25-12.14-8.63-19.11-20.44-13.57-34.21 4.63-11.52 27.95-20.71 61.52-26.88h42.44c-15.67 3.92-57.19 15.52-57.08 27.7.21 22.15 116.17 38.81 114.68 83.64-1 30-53.41 51.24-49.2 74.69 3.79 21.16 57.57 43.18 98.2 56.94z" fill="#9596a5"/><path d="m256 374.67v-65.8c14.17 8.07 26.92 15.9 29.7 20.08 6.05 9.1 5.15 15.54-.23 22.04-7.06 8.52-18.53 16.34-29.47 23.68z" fill="#7e7f92"/><path d="m289.85 509.77c-10.82 1.44-21.85 2.2-33.06 2.23h-.79v-32.9c14.17 8.07 26.92 15.9 29.7 20.08 2.63 3.96 3.95 7.41 4.15 10.59z" fill="#7e7f92"/><path d="m383.32 478.13c-20.16 11.59-42.06 20.51-65.2 26.27-4.78 1.2-9.61.472-14.5 1.382l-.84 1.448c-10.66-4.97-27.5-10.94-46.78-21.03v-111.53c10.94-7.34 22.41-15.16 29.47-23.68 5.38-6.5 6.28-12.94.23-22.04-2.78-4.18-15.53-12.01-29.7-20.08v-21.8c33.94 14.26 79.26 31.3 78.32 59.43-1 30-53.41 51.24-49.2 74.69 3.79 21.16 57.57 43.18 98.2 56.94z" fill="#6e6f83"/><g fill="#7e7f92"><path d="m219.64 262.86c.07 8.25 16.22 15.74 36.36 24.21v21.8c-14.5-8.26-30.48-16.78-38.82-21.93-16.5-10.18-19.21-15.33-20.24-19.97s.52-8.89 5.87-12.81c8.83-6.46 33.85-14.77 47.48-19h26.43c-5 1.25-12.64 3.28-20.72 5.88-17.22 5.51-36.43 13.53-36.36 21.82z"/><path d="m242.82 383.72c4.05-2.94 8.57-5.95 13.18-9.05v111.53c-15.68-8.19-32.96-19.11-49.83-34.42-4.87-4.41-11.83-13.98-8.97-26.3 2.77-11.92 31.96-31.83 45.62-41.76z"/></g></g><path d="m318.12 504.4c-10.66 2.67-21.6 4.66-32.75 5.92-9.88-4.63-19.82-9.54-29.37-14.64-34.44-18.38-63.77-39.16-66.6-57.68-2.86-18.71 8.97-28.27 38.64-49.07 10.37-7.27 19.85-13.51 27.96-19.07 17.55-12.07 28.73-21 28.78-30.51.06-9.41-12.75-18.29-28.78-27.29-20.38-11.45-45.98-23.1-56.96-36.27-5.21-6.24-5.66-13.03-3.56-16.6 5.88-10.03 37.63-19.8 52.99-24.03h3.71c-16.96 4.94-51.64 16.3-53.17 27.01-.2 2.87.11 5.55 2.49 8.7 9.13 12.14 33.16 23.26 54.5 34.65 19.95 10.64 37.57 21.52 38.52 33.67.94 12.13-18.44 27.4-38.52 41.49-8.85 6.22-17.84 12.21-25.28 17.6-22.1 16.03-26.84 24.54-25.91 34.37.93 9.84 22.6 28.75 47.27 41.92 1.18.63 2.49 1.31 3.92 2.04 13.49 6.81 37.34 17.4 62.12 27.79z" fill="#fdd500"/><path d="m318.12 504.4c-10.66 2.67-21.6 4.66-32.75 5.92-9.88-4.63-19.82-9.54-29.37-14.64v-19.07c13.49 6.81 37.34 17.4 62.12 27.79z" fill="#ffc300"/><g><g><path d="m190.21 201.9h6.74v40.712h-6.74z" fill="#ec771b"/></g><path d="m193.58 201.9h3.37v40.712h-3.37z" fill="#c55732"/><path d="m190.21 201.9h3.37v28.009h-3.37z" fill="#c55732"/><path d="m193.58 201.9h3.37v28.009h-3.37z" fill="#a44e3e"/><g><path d="m218.863 212.165c.069 6.917-5.747 12.575-12.661 12.575h-25.242c-6.917 0-12.73-5.658-12.664-12.575.036-3.425 1.453-6.519 3.724-8.749 1.076-1.06 1.627-2.548 1.533-4.059-.017-.26-.025-.526-.025-.791 0-4.208 2.086-7.93 5.285-10.182 1.436-1.013 2.319-2.637 2.319-4.394v-.205c0-6.876 5.572-12.451 12.448-12.451.072 0 .141.003.213.003 3.414.055 6.472 1.513 8.68 3.807 2.205 2.296 3.558 5.431 3.558 8.846 0 1.757.883 3.381 2.319 4.394 3.196 2.252 5.285 5.974 5.285 10.182 0 .266-.008.531-.025.791-.097 1.511.454 2.999 1.533 4.059 2.268 2.23 3.687 5.324 3.72 8.749z" fill="#43af3e"/></g><g><g><path d="m218.863 212.165c.069 6.917-5.747 12.575-12.661 12.575h-18.596c-3.273 0-6.026-5.658-5.993-12.575.017-3.425.686-6.519 1.762-8.749.509-1.06.769-2.548.725-4.059-.008-.26-.011-.526-.011-.791 0-4.208.988-7.93 2.501-10.182.678-1.013 1.096-2.637 1.096-4.394v-.205c0-6.876 2.64-12.451 5.893-12.451.033 0 .066.003.1.003h.113c3.414.055 6.472 1.513 8.68 3.807 2.205 2.296 3.558 5.431 3.558 8.846 0 1.757.883 3.381 2.319 4.394 3.196 2.252 5.285 5.974 5.285 10.182 0 .266-.008.531-.025.791-.097 1.511.454 2.999 1.533 4.059 2.269 2.23 3.688 5.324 3.721 8.749z" fill="#00a23e"/></g></g><path d="m218.863 212.165c.069 6.917-5.747 12.575-12.661 12.575h-12.622v-53.406c.072 0 .141.003.213.003 3.414.055 6.472 1.513 8.68 3.807 2.205 2.296 3.558 5.431 3.558 8.846 0 1.757.883 3.381 2.319 4.394 3.196 2.252 5.285 5.974 5.285 10.182 0 .266-.008.531-.025.791-.097 1.511.454 2.999 1.533 4.059 2.268 2.23 3.687 5.324 3.72 8.749z" fill="#008839"/></g><g><g><path d="m265.54 201.9h6.74v40.712h-6.74z" fill="#ec771b"/></g><path d="m268.91 201.9h3.37v40.712h-3.37z" fill="#c55732"/><path d="m265.54 201.9h3.37v28.009h-3.37z" fill="#c55732"/><path d="m268.91 201.9h3.37v28.009h-3.37z" fill="#a44e3e"/><g><path d="m294.193 212.165c.069 6.917-5.747 12.575-12.661 12.575h-25.242c-6.917 0-12.73-5.658-12.664-12.575.036-3.425 1.453-6.519 3.724-8.749 1.076-1.06 1.627-2.548 1.533-4.059-.017-.26-.025-.526-.025-.791 0-4.208 2.086-7.93 5.285-10.182 1.436-1.013 2.319-2.637 2.319-4.394v-.205c0-6.876 5.572-12.451 12.448-12.451.072 0 .141.003.213.003 3.414.055 6.472 1.513 8.68 3.807 2.205 2.296 3.558 5.431 3.558 8.846 0 1.757.883 3.381 2.319 4.394 3.196 2.252 5.285 5.974 5.285 10.182 0 .266-.008.531-.025.791-.097 1.511.454 2.999 1.533 4.059 2.268 2.23 3.687 5.324 3.72 8.749z" fill="#43af3e"/></g><g><g><path d="m294.193 212.165c.069 6.917-5.747 12.575-12.661 12.575h-18.596c-3.273 0-6.026-5.658-5.993-12.575.017-3.425.686-6.519 1.763-8.749.509-1.06.769-2.548.725-4.059-.008-.26-.011-.526-.011-.791 0-4.208.988-7.93 2.501-10.182.678-1.013 1.096-2.637 1.096-4.394v-.205c0-6.876 2.64-12.451 5.893-12.451.033 0 .066.003.1.003h.113c3.414.055 6.472 1.513 8.68 3.807 2.205 2.296 3.558 5.431 3.558 8.846 0 1.757.883 3.381 2.319 4.394 3.196 2.252 5.285 5.974 5.285 10.182 0 .266-.008.531-.025.791-.097 1.511.454 2.999 1.533 4.059 2.268 2.23 3.687 5.324 3.72 8.749z" fill="#00a23e"/></g></g><path d="m294.193 212.165c.069 6.917-5.747 12.575-12.661 12.575h-12.622v-53.406c.072 0 .141.003.213.003 3.414.055 6.472 1.513 8.68 3.807 2.205 2.296 3.558 5.431 3.558 8.846 0 1.757.883 3.381 2.319 4.394 3.196 2.252 5.285 5.974 5.285 10.182 0 .266-.008.531-.025.791-.097 1.511.454 2.999 1.533 4.059 2.268 2.23 3.687 5.324 3.72 8.749z" fill="#008839"/></g><g><g><path d="m241.764 233.687h6.362v38.429h-6.362z" fill="#ec771b"/></g><path d="m244.945 233.687h3.181v38.429h-3.181z" fill="#c55732"/><path d="m241.764 233.687h3.181v26.438h-3.181z" fill="#c55732"/><path d="m244.945 233.687h3.181v26.438h-3.181z" fill="#a44e3e"/><g><path d="m268.81 243.376c.065 6.529-5.424 11.87-11.951 11.87h-23.827c-6.529 0-12.016-5.341-11.954-11.87.034-3.233 1.371-6.153 3.515-8.258 1.016-1 1.536-2.405 1.447-3.831-.016-.245-.023-.496-.023-.747 0-3.972 1.969-7.485 4.988-9.611 1.355-.956 2.189-2.489 2.189-4.147v-.193c0-6.49 5.26-11.753 11.75-11.753.068 0 .133.003.201.003 3.223.052 6.109 1.429 8.193 3.594 2.081 2.168 3.359 5.127 3.359 8.35 0 1.658.833 3.191 2.189 4.147 3.017 2.126 4.988 5.639 4.988 9.611 0 .251-.008.501-.023.747-.091 1.426.428 2.831 1.447 3.831 2.141 2.104 3.481 5.024 3.512 8.257z" fill="#43af3e"/></g><g><g><path d="m268.81 243.376c.065 6.529-5.424 11.87-11.951 11.87h-17.553c-3.09 0-5.688-5.341-5.657-11.87.016-3.233.648-6.153 1.664-8.258.481-1 .726-2.405.684-3.831-.008-.245-.01-.496-.01-.747 0-3.972.932-7.485 2.361-9.611.64-.956 1.034-2.489 1.034-4.147v-.193c0-6.49 2.492-11.753 5.563-11.753.031 0 .063.003.094.003h.107c3.223.052 6.109 1.429 8.193 3.594 2.081 2.168 3.359 5.127 3.359 8.35 0 1.658.833 3.191 2.189 4.147 3.017 2.126 4.988 5.639 4.988 9.611 0 .251-.008.501-.023.747-.091 1.426.428 2.831 1.447 3.831 2.14 2.104 3.48 5.024 3.511 8.257z" fill="#00a23e"/></g></g><path d="m268.81 243.376c.065 6.529-5.424 11.87-11.951 11.87h-11.915v-50.411c.068 0 .133.003.201.003 3.223.052 6.109 1.429 8.193 3.594 2.081 2.168 3.359 5.127 3.359 8.35 0 1.658.833 3.191 2.189 4.147 3.017 2.126 4.988 5.639 4.988 9.611 0 .251-.008.501-.023.747-.091 1.426.428 2.831 1.447 3.831 2.141 2.105 3.481 5.025 3.512 8.258z" fill="#008839"/></g><g><g><path d="m288.891 244.02h8.344v50.396h-8.344z" fill="#ec771b"/></g><path d="m293.063 244.02h4.172v50.396h-4.172z" fill="#c55732"/><path d="m288.891 244.02h4.172v34.672h-4.172z" fill="#c55732"/><path d="m293.063 244.02h4.172v34.672h-4.172z" fill="#a44e3e"/><g><path d="m324.36 256.728c.086 8.563-7.114 15.567-15.673 15.567h-31.247c-8.563 0-15.759-7.004-15.677-15.567.045-4.24 1.798-8.069 4.61-10.83 1.332-1.312 2.014-3.155 1.898-5.025-.021-.322-.031-.651-.031-.979 0-5.21 2.583-9.816 6.542-12.604 1.778-1.254 2.87-3.264 2.87-5.439v-.253c0-8.511 6.898-15.413 15.409-15.413.089 0 .175.003.264.003 4.227.068 8.011 1.874 10.745 4.713 2.73 2.843 4.404 6.723 4.404 10.95 0 2.175 1.093 4.186 2.87 5.439 3.956 2.788 6.542 7.395 6.542 12.604 0 .329-.01.658-.031.979-.12 1.87.562 3.713 1.897 5.025 2.81 2.76 4.567 6.589 4.608 10.83z" fill="#43af3e"/></g><g><g><path d="m324.36 256.728c.086 8.563-7.114 15.567-15.673 15.567h-23.02c-4.052 0-7.46-7.004-7.419-15.567.02-4.24.849-8.069 2.182-10.83.63-1.312.952-3.155.897-5.025-.01-.322-.014-.651-.014-.979 0-5.21 1.223-9.816 3.096-12.604.839-1.254 1.356-3.264 1.356-5.439v-.253c0-8.511 3.268-15.413 7.295-15.413.041 0 .082.003.123.003h.141c4.227.068 8.011 1.874 10.744 4.713 2.73 2.843 4.405 6.723 4.405 10.95 0 2.175 1.093 4.186 2.87 5.439 3.956 2.788 6.542 7.395 6.542 12.604 0 .329-.01.658-.031.979-.12 1.87.562 3.713 1.897 5.025 2.811 2.76 4.568 6.589 4.609 10.83z" fill="#00a23e"/></g></g><path d="m324.36 256.728c.086 8.563-7.114 15.567-15.673 15.567h-15.625v-66.111c.089 0 .175.003.264.003 4.227.068 8.011 1.874 10.745 4.713 2.73 2.843 4.404 6.723 4.404 10.95 0 2.175 1.093 4.186 2.87 5.439 3.956 2.788 6.542 7.395 6.542 12.604 0 .329-.01.658-.031.979-.12 1.87.562 3.713 1.897 5.025 2.809 2.761 4.566 6.59 4.607 10.831z" fill="#008839"/></g><g><g><path d="m158.289 226.808h8.234v49.734h-8.234z" fill="#ec771b"/></g><path d="m162.406 226.808h4.117v49.734h-4.117z" fill="#c55732"/><path d="m158.289 226.808h4.117v34.216h-4.117z" fill="#c55732"/><path d="m162.406 226.808h4.117v34.216h-4.117z" fill="#a44e3e"/><g><path d="m193.292 239.348c.084 8.45-7.02 15.362-15.467 15.362h-30.836c-8.45 0-15.552-6.912-15.471-15.362.044-4.184 1.775-7.964 4.55-10.688 1.315-1.295 1.987-3.113 1.873-4.959-.02-.318-.03-.642-.03-.967 0-5.141 2.549-9.687 6.456-12.439 1.754-1.237 2.833-3.221 2.833-5.368v-.25c0-8.399 6.807-15.21 15.207-15.21.088 0 .172.003.26.003 4.171.068 7.906 1.849 10.603 4.651 2.694 2.805 4.347 6.635 4.347 10.806 0 2.146 1.078 4.13 2.832 5.368 3.904 2.751 6.456 7.298 6.456 12.439 0 .324-.01.649-.03.967-.118 1.846.554 3.664 1.872 4.959 2.771 2.725 4.505 6.504 4.545 10.688z" fill="#43af3e"/></g><g><g><path d="m193.292 239.348c.084 8.45-7.02 15.362-15.467 15.362h-22.717c-3.999 0-7.362-6.912-7.321-15.362.02-4.184.838-7.964 2.153-10.688.622-1.295.94-3.113.886-4.959-.01-.318-.014-.642-.014-.967 0-5.141 1.207-9.687 3.056-12.439.828-1.237 1.339-3.221 1.339-5.368v-.25c0-8.399 3.225-15.21 7.2-15.21.041 0 .081.003.122.003h.139c4.171.068 7.906 1.849 10.603 4.651 2.694 2.805 4.347 6.635 4.347 10.806 0 2.146 1.078 4.13 2.833 5.368 3.904 2.751 6.456 7.298 6.456 12.439 0 .324-.01.649-.03.967-.118 1.846.554 3.664 1.872 4.959 2.769 2.725 4.503 6.504 4.543 10.688z" fill="#00a23e"/></g></g><path d="m193.292 239.348c.084 8.45-7.02 15.362-15.467 15.362h-15.42v-65.242c.088 0 .172.003.26.003 4.171.068 7.906 1.849 10.603 4.651 2.694 2.805 4.347 6.635 4.347 10.806 0 2.146 1.078 4.13 2.832 5.368 3.904 2.751 6.456 7.298 6.456 12.439 0 .324-.01.649-.03.967-.118 1.846.554 3.664 1.872 4.959 2.773 2.724 4.507 6.503 4.547 10.687z" fill="#008839"/></g><g><g><path d="m81.466 267.35h8.234v49.734h-8.234z" fill="#ec771b"/></g><path d="m85.583 267.35h4.117v49.734h-4.117z" fill="#c55732"/><path d="m81.466 267.35h4.117v34.216h-4.117z" fill="#c55732"/><path d="m85.583 267.35h4.117v34.216h-4.117z" fill="#a44e3e"/><g><path d="m116.469 279.89c.084 8.45-7.02 15.362-15.467 15.362h-30.836c-8.45 0-15.552-6.912-15.471-15.362.044-4.184 1.775-7.963 4.55-10.688 1.315-1.295 1.987-3.113 1.872-4.959-.02-.318-.03-.642-.03-.967 0-5.141 2.549-9.687 6.456-12.439 1.754-1.237 2.832-3.221 2.832-5.368v-.25c0-8.399 6.807-15.21 15.207-15.21.088 0 .172.003.26.003 4.171.068 7.906 1.849 10.603 4.651 2.694 2.805 4.347 6.635 4.347 10.806 0 2.146 1.078 4.13 2.832 5.368 3.904 2.751 6.456 7.297 6.456 12.439 0 .324-.01.649-.03.967-.118 1.846.554 3.664 1.872 4.959 2.772 2.724 4.506 6.503 4.547 10.688z" fill="#43af3e"/></g><g><g><path d="m116.469 279.89c.084 8.45-7.02 15.362-15.467 15.362h-22.717c-3.999 0-7.362-6.912-7.321-15.362.02-4.184.838-7.963 2.153-10.688.622-1.295.94-3.113.886-4.959-.01-.318-.014-.642-.014-.967 0-5.141 1.207-9.687 3.056-12.439.828-1.237 1.339-3.221 1.339-5.368v-.25c0-8.399 3.225-15.21 7.2-15.21.041 0 .081.003.122.003h.139c4.171.068 7.906 1.849 10.603 4.651 2.694 2.805 4.347 6.635 4.347 10.806 0 2.146 1.078 4.13 2.833 5.368 3.904 2.751 6.456 7.297 6.456 12.439 0 .324-.01.649-.03.967-.118 1.846.554 3.664 1.872 4.959 2.768 2.724 4.502 6.503 4.543 10.688z" fill="#00a23e"/></g></g><path d="m116.469 279.89c.084 8.45-7.02 15.362-15.467 15.362h-15.42v-65.242c.088 0 .172.003.26.003 4.171.068 7.906 1.849 10.603 4.651 2.694 2.805 4.347 6.635 4.347 10.806 0 2.146 1.078 4.13 2.832 5.368 3.904 2.751 6.456 7.297 6.456 12.439 0 .324-.01.649-.03.967-.118 1.846.554 3.664 1.872 4.959 2.772 2.723 4.506 6.502 4.547 10.687z" fill="#008839"/></g><g><g><path d="m41.12 332.49v55.44h-4.53c-1.6-2.65-3.15-5.33-4.65-8.04v-47.4z" fill="#ec771b"/></g><path d="m36.531 332.49h4.589v55.443h-4.589z" fill="#c55732"/><path d="m31.941 332.49h4.589v38.144h-4.589z" fill="#c55732"/><path d="m36.531 332.49h4.589v38.144h-4.589z" fill="#a44e3e"/><g><path d="m70.96 346.47c.1 9.42-7.82 17.13-17.24 17.13h-30.06c-5.72-12.31-10.48-25.16-14.2-38.45.75-4.56 3.32-8.51 6.96-11.07 1.96-1.38 3.16-3.59 3.16-5.98v-.28c0-9.36 7.59-16.96 16.95-16.96.1 0 .19.01.29.01 4.65.07 8.81 2.06 11.82 5.18 3 3.13 4.85 7.4 4.85 12.05 0 2.39 1.2 4.6 3.15 5.98 4.36 3.07 7.2 8.14 7.2 13.87 0 .36-.01.72-.03 1.08-.13 2.05.61 4.08 2.08 5.52 3.09 3.04 5.03 7.25 5.07 11.92z" fill="#43af3e"/></g><g><g><path d="m70.963 346.469c.094 9.42-7.826 17.126-17.243 17.126h-25.325c-4.458 0-8.207-7.706-8.162-17.126.023-4.665.934-8.878 2.4-11.915.693-1.443 1.048-3.47.987-5.528-.011-.354-.015-.716-.015-1.078 0-5.731 1.345-10.799 3.406-13.866.923-1.379 1.492-3.591 1.492-5.984v-.279c0-9.363 3.595-16.956 8.026-16.956.045 0 .09.004.136.004h.155c4.65.075 8.813 2.061 11.82 5.185 3.003 3.128 4.846 7.397 4.846 12.046 0 2.393 1.202 4.605 3.158 5.984 4.352 3.067 7.197 8.135 7.197 13.866 0 .362-.011.724-.034 1.078-.132 2.057.618 4.085 2.088 5.528 3.089 3.038 5.022 7.251 5.068 11.915z" fill="#00a23e"/></g></g><path d="m70.963 346.469c.094 9.42-7.826 17.126-17.243 17.126h-17.19v-72.731c.098 0 .192.004.29.004 4.65.075 8.813 2.061 11.82 5.185 3.003 3.128 4.846 7.397 4.846 12.046 0 2.393 1.202 4.605 3.158 5.984 4.352 3.067 7.197 8.135 7.197 13.866 0 .362-.011.724-.034 1.078-.132 2.057.618 4.085 2.088 5.528 3.089 3.037 5.022 7.25 5.068 11.914z" fill="#008839"/></g><g><g><path d="m184.891 272.163h7.752v46.821h-7.752z" fill="#ec771b"/></g><path d="m188.767 272.163h3.876v46.821h-3.876z" fill="#c55732"/><path d="m184.891 272.163h3.876v32.212h-3.876z" fill="#c55732"/><path d="m188.767 272.163h3.876v32.212h-3.876z" fill="#a44e3e"/><g><path d="m217.844 283.969c.079 7.955-6.609 14.463-14.561 14.463h-29.03c-7.955 0-14.641-6.507-14.564-14.463.041-3.939 1.671-7.497 4.283-10.062 1.238-1.219 1.871-2.931 1.763-4.668-.019-.299-.029-.604-.029-.91 0-4.84 2.399-9.12 6.078-11.71 1.652-1.165 2.667-3.033 2.667-5.053v-.235c0-7.907 6.409-14.319 14.316-14.319.083 0 .162.003.245.003 3.927.064 7.443 1.741 9.982 4.378 2.536 2.641 4.092 6.247 4.092 10.173 0 2.021 1.015 3.889 2.667 5.053 3.675 2.59 6.078 6.87 6.078 11.71 0 .306-.01.611-.029.91-.111 1.737.522 3.449 1.763 4.668 2.608 2.565 4.241 6.122 4.279 10.062z" fill="#43af3e"/></g><g><g><path d="m217.844 283.969c.08 7.955-6.609 14.463-14.561 14.463h-21.387c-3.764 0-6.931-6.507-6.892-14.463.019-3.939.789-7.497 2.027-10.062.585-1.219.885-2.931.834-4.668-.01-.299-.013-.604-.013-.91 0-4.84 1.136-9.12 2.877-11.71.78-1.165 1.26-3.033 1.26-5.053v-.235c0-7.907 3.036-14.319 6.778-14.319.038 0 .076.003.115.003h.13c3.927.064 7.443 1.741 9.982 4.378 2.536 2.641 4.092 6.247 4.092 10.173 0 2.021 1.015 3.889 2.667 5.053 3.675 2.59 6.078 6.87 6.078 11.71 0 .306-.009.611-.029.91-.111 1.737.522 3.449 1.763 4.668 2.608 2.565 4.241 6.122 4.279 10.062z" fill="#00a23e"/></g></g><path d="m217.844 283.969c.079 7.955-6.609 14.463-14.561 14.463h-14.517v-61.421c.083 0 .162.003.245.003 3.927.064 7.443 1.741 9.982 4.378 2.536 2.641 4.092 6.247 4.092 10.173 0 2.021 1.015 3.889 2.667 5.053 3.675 2.59 6.078 6.87 6.078 11.71 0 .306-.01.611-.029.91-.111 1.737.522 3.449 1.763 4.668 2.609 2.566 4.242 6.123 4.28 10.063z" fill="#008839"/></g><g><g><path d="m211.777 296.45h8.461v51.107h-8.461z" fill="#ec771b"/></g><path d="m216.007 296.45h4.231v51.107h-4.231z" fill="#c55732"/><path d="m211.777 296.45h4.231v35.161h-4.231z" fill="#c55732"/><path d="m216.007 296.45h4.231v35.161h-4.231z" fill="#a44e3e"/><g><path d="m247.747 309.336c.087 8.684-7.214 15.787-15.894 15.787h-31.688c-8.684 0-15.981-7.103-15.898-15.787.045-4.3 1.823-8.183 4.675-10.983 1.351-1.33 2.042-3.199 1.924-5.096-.021-.326-.031-.66-.031-.993 0-5.283 2.619-9.955 6.634-12.782 1.803-1.271 2.911-3.31 2.911-5.516v-.257c0-8.631 6.995-15.63 15.627-15.63.09 0 .177.004.268.004 4.286.069 8.124 1.9 10.896 4.779 2.768 2.883 4.467 6.818 4.467 11.104 0 2.206 1.108 4.245 2.911 5.516 4.012 2.827 6.634 7.499 6.634 12.782 0 .333-.01.667-.031.993-.122 1.897.57 3.765 1.924 5.096 2.847 2.8 4.629 6.683 4.671 10.983z" fill="#43af3e"/></g><g><g><path d="m247.747 309.336c.087 8.684-7.214 15.787-15.894 15.787h-23.345c-4.109 0-7.565-7.103-7.523-15.787.021-4.3.861-8.183 2.213-10.983.639-1.33.966-3.199.91-5.096-.01-.326-.014-.66-.014-.993 0-5.283 1.24-9.955 3.14-12.782.851-1.271 1.376-3.31 1.376-5.516v-.257c0-8.631 3.314-15.63 7.398-15.63.042 0 .083.004.125.004h.142c4.286.069 8.124 1.9 10.896 4.779 2.768 2.883 4.467 6.818 4.467 11.104 0 2.206 1.108 4.245 2.911 5.516 4.012 2.827 6.634 7.499 6.634 12.782 0 .333-.01.667-.031.993-.122 1.897.57 3.765 1.924 5.096 2.847 2.8 4.629 6.683 4.671 10.983z" fill="#00a23e"/></g></g><path d="m247.747 309.336c.087 8.684-7.214 15.787-15.894 15.787h-15.846v-67.043c.09 0 .177.004.268.004 4.286.069 8.124 1.9 10.896 4.779 2.768 2.883 4.467 6.818 4.467 11.104 0 2.206 1.108 4.245 2.911 5.516 4.012 2.827 6.634 7.499 6.634 12.782 0 .333-.01.667-.031.993-.122 1.897.57 3.765 1.924 5.096 2.847 2.799 4.629 6.682 4.671 10.982z" fill="#008839"/></g><g><g><path d="m153.299 317.409h10.006v60.437h-10.006z" fill="#ec771b"/></g><path d="m158.302 317.409h5.003v60.437h-5.003z" fill="#c55732"/><path d="m153.299 317.409h5.003v41.58h-5.003z" fill="#c55732"/><path d="m158.302 317.409h5.003v41.58h-5.003z" fill="#a44e3e"/><g><path d="m195.835 332.648c.103 10.269-8.531 18.668-18.796 18.668h-37.473c-10.269 0-18.898-8.4-18.8-18.668.053-5.085 2.156-9.677 5.529-12.988 1.598-1.573 2.415-3.783 2.276-6.026-.025-.386-.037-.78-.037-1.175 0-6.247 3.097-11.772 7.845-15.115 2.132-1.503 3.442-3.914 3.442-6.523v-.304c0-10.207 8.272-18.484 18.479-18.484.107 0 .21.004.316.004 5.069.082 9.607 2.247 12.885 5.652 3.273 3.409 5.282 8.063 5.282 13.132 0 2.608 1.31 5.019 3.442 6.523 4.744 3.343 7.845 8.868 7.845 15.115 0 .394-.012.789-.037 1.175-.144 2.243.673 4.453 2.275 6.026 3.371 3.31 5.478 7.903 5.527 12.988z" fill="#43af3e"/></g><g><g><path d="m195.835 332.648c.103 10.269-8.531 18.668-18.796 18.668h-27.606c-4.859 0-8.946-8.4-8.897-18.668.025-5.085 1.019-9.677 2.617-12.988.756-1.573 1.142-3.783 1.076-6.026-.012-.386-.016-.78-.016-1.175 0-6.247 1.466-11.772 3.713-15.115 1.006-1.503 1.626-3.914 1.626-6.523v-.304c0-10.207 3.919-18.484 8.749-18.484.049 0 .099.004.148.004h.168c5.069.082 9.607 2.247 12.885 5.652 3.273 3.409 5.282 8.063 5.282 13.132 0 2.608 1.31 5.019 3.442 6.523 4.744 3.343 7.845 8.868 7.845 15.115 0 .394-.012.789-.037 1.175-.144 2.243.674 4.453 2.275 6.026 3.37 3.31 5.477 7.903 5.526 12.988z" fill="#00a23e"/></g></g><path d="m195.835 332.648c.103 10.269-8.531 18.668-18.796 18.668h-18.738v-79.282c.107 0 .21.004.316.004 5.069.082 9.607 2.247 12.885 5.652 3.273 3.409 5.282 8.063 5.282 13.132 0 2.608 1.31 5.019 3.442 6.523 4.744 3.343 7.845 8.868 7.845 15.115 0 .394-.012.789-.037 1.175-.144 2.243.673 4.453 2.275 6.026 3.37 3.309 5.477 7.902 5.526 12.987z" fill="#008839"/></g><g><g><path d="m104.678 361.647h10.006v60.437h-10.006z" fill="#ec771b"/></g><path d="m109.681 361.647h5.003v60.437h-5.003z" fill="#c55732"/><path d="m104.678 361.647h5.003v41.58h-5.003z" fill="#c55732"/><path d="m109.681 361.647h5.003v41.58h-5.003z" fill="#a44e3e"/><g><path d="m147.214 376.886c.103 10.269-8.531 18.668-18.796 18.668h-37.472c-10.269 0-18.899-8.4-18.8-18.668.053-5.085 2.156-9.677 5.529-12.988 1.598-1.573 2.415-3.783 2.275-6.026-.025-.386-.037-.78-.037-1.175 0-6.248 3.097-11.772 7.845-15.116 2.132-1.503 3.442-3.914 3.442-6.523v-.304c0-10.207 8.273-18.484 18.479-18.484.107 0 .21.004.316.004 5.069.082 9.607 2.247 12.885 5.652 3.273 3.409 5.282 8.063 5.282 13.132 0 2.608 1.31 5.019 3.442 6.523 4.744 3.344 7.845 8.868 7.845 15.116 0 .394-.012.789-.037 1.175-.144 2.243.674 4.453 2.275 6.026 3.371 3.311 5.478 7.903 5.527 12.988z" fill="#43af3e"/></g><g><g><path d="m147.214 376.886c.103 10.269-8.531 18.668-18.796 18.668h-27.606c-4.859 0-8.946-8.4-8.897-18.668.025-5.085 1.019-9.677 2.617-12.988.756-1.573 1.142-3.783 1.076-6.026-.012-.386-.016-.78-.016-1.175 0-6.248 1.466-11.772 3.713-15.116 1.006-1.503 1.627-3.914 1.627-6.523v-.304c0-10.207 3.918-18.484 8.749-18.484.049 0 .099.004.148.004h.168c5.069.082 9.607 2.247 12.885 5.652 3.273 3.409 5.282 8.063 5.282 13.132 0 2.608 1.31 5.019 3.442 6.523 4.744 3.344 7.845 8.868 7.845 15.116 0 .394-.012.789-.037 1.175-.144 2.243.674 4.453 2.275 6.026 3.369 3.311 5.476 7.903 5.525 12.988z" fill="#00a23e"/></g></g><path d="m147.214 376.886c.103 10.269-8.531 18.668-18.796 18.668h-18.738v-79.282c.107 0 .21.004.316.004 5.069.082 9.607 2.247 12.885 5.652 3.273 3.409 5.282 8.063 5.282 13.132 0 2.608 1.31 5.019 3.442 6.523 4.744 3.344 7.845 8.868 7.845 15.116 0 .394-.012.789-.037 1.175-.144 2.243.674 4.453 2.275 6.026 3.37 3.309 5.477 7.901 5.526 12.986z" fill="#008839"/></g><g><g><path d="m135.32 449.67c.11 10.69-7.87 19.64-18.1 21.48-18.57-12-35.48-26.34-50.33-42.6-3.04-3.33-5.99-6.74-8.84-10.23 1.55-4.03 4.27-7.48 7.75-9.93 2.49-1.76 4.02-4.58 4.02-7.63v-.35c0-11.94 9.68-21.62 21.61-21.62.13 0 .25.01.37.01 5.93.09 11.24 2.62 15.07 6.61 3.83 3.98 6.18 9.42 6.18 15.35 0 3.05 1.53 5.87 4.02 7.63 5.55 3.91 9.17 10.37 9.17 17.67 0 .47-.01.93-.04 1.38-.17 2.62.79 5.2 2.66 7.04 3.94 3.88 6.4 9.24 6.46 15.19z" fill="#43af3e"/></g><g><g><path d="m135.32 449.67c.11 10.69-7.87 19.64-18.1 21.48-15.94-10.3-30.66-22.32-43.89-35.81.12-.29.25-.58.39-.86.88-1.84 1.33-4.42 1.26-7.04-.02-.45-.02-.91-.02-1.38 0-7.3 1.71-13.76 4.34-17.67 1.18-1.76 1.9-4.58 1.9-7.63v-.35c0-11.94 4.58-21.62 10.23-21.62.06 0 .12.01.17.01h.2c5.93.09 11.24 2.62 15.07 6.61 3.83 3.98 6.18 9.42 6.18 15.35 0 3.05 1.53 5.87 4.02 7.63 5.55 3.91 9.17 10.37 9.17 17.67 0 .47-.01.93-.04 1.38-.17 2.62.79 5.2 2.66 7.04 3.94 3.88 6.4 9.24 6.46 15.19z" fill="#00a23e"/></g></g><path d="m135.32 449.67c.11 10.69-7.87 19.64-18.1 21.48-9-5.82-17.62-12.18-25.79-19.06v-73.3c.13 0 .25.01.37.01 5.93.09 11.24 2.62 15.07 6.61 3.83 3.98 6.18 9.42 6.18 15.35 0 3.05 1.53 5.87 4.02 7.63 5.55 3.91 9.17 10.37 9.17 17.67 0 .47-.01.93-.04 1.38-.17 2.62.79 5.2 2.66 7.04 3.94 3.88 6.4 9.24 6.46 15.19z" fill="#008839"/></g><g><g><path d="m190.21 480.9c.08 8.26-4.67 15.49-11.56 19.2-21.9-6.92-42.52-16.72-61.43-28.95-2.78-1.8-5.52-3.64-8.22-5.55 1.8-1.83 2.72-4.36 2.56-6.93-.03-.45-.05-.92-.05-1.38 0-7.3 3.62-13.76 9.18-17.67 2.49-1.76 4.02-4.58 4.02-7.63v-.35c0-11.94 9.67-21.62 21.61-21.62.12 0 .24.01.37.01 5.93.09 11.23 2.62 15.07 6.61 3.82 3.98 6.17 9.42 6.17 15.35 0 3.05 1.54 5.87 4.03 7.63 5.55 3.91 9.17 10.37 9.17 17.67 0 .46-.01.93-.04 1.38-.17 2.62.79 5.2 2.66 7.04 3.94 3.87 6.4 9.24 6.46 15.19z" fill="#43af3e"/></g><g><g><path d="m190.21 480.9c.08 8.26-4.67 15.49-11.56 19.2-18.64-5.89-36.35-13.86-52.86-23.65.43-4.16 1.43-7.86 2.82-10.74.88-1.84 1.33-4.42 1.25-7.04-.01-.45-.01-.92-.01-1.38 0-7.3 1.71-13.76 4.34-17.67 1.17-1.76 1.9-4.58 1.9-7.63v-.35c0-11.94 4.58-21.62 10.23-21.62.06 0 .11.01.17.01h.2c5.93.09 11.23 2.62 15.07 6.61 3.82 3.98 6.17 9.42 6.17 15.35 0 3.05 1.54 5.87 4.03 7.63 5.55 3.91 9.17 10.37 9.17 17.67 0 .46-.01.93-.04 1.38-.17 2.62.79 5.2 2.66 7.04 3.94 3.87 6.4 9.24 6.46 15.19z" fill="#00a23e"/></g></g><path d="m190.21 480.9c.08 8.26-4.67 15.49-11.56 19.2-11.13-3.52-21.92-7.77-32.33-12.72v-77.36c.12 0 .24.01.37.01 5.93.09 11.23 2.62 15.07 6.61 3.82 3.98 6.17 9.42 6.17 15.35 0 3.05 1.54 5.87 4.03 7.63 5.55 3.91 9.17 10.37 9.17 17.67 0 .46-.01.93-.04 1.38-.17 2.62.79 5.2 2.66 7.04 3.94 3.87 6.4 9.24 6.46 15.19z" fill="#008839"/></g><g><g><path d="m338.846 267.35h9.766v58.987h-9.766z" fill="#ec771b"/></g><path d="m343.729 267.35h4.883v58.987h-4.883z" fill="#c55732"/><path d="m338.846 267.35h4.883v40.582h-4.883z" fill="#c55732"/><path d="m343.729 267.35h4.883v40.582h-4.883z" fill="#a44e3e"/><g><path d="m380.361 282.223c.1 10.022-8.327 18.221-18.345 18.221h-36.574c-10.022 0-18.445-8.198-18.349-18.221.052-4.963 2.105-9.445 5.396-12.676 1.559-1.535 2.357-3.692 2.221-5.881-.024-.377-.036-.762-.036-1.147 0-6.098 3.023-11.49 7.657-14.753 2.081-1.467 3.359-3.821 3.359-6.366v-.297c0-9.962 8.074-18.04 18.036-18.04.104 0 .204.004.309.004 4.947.08 9.377 2.193 12.576 5.516 3.195 3.327 5.155 7.87 5.155 12.817 0 2.546 1.279 4.899 3.359 6.366 4.63 3.263 7.657 8.655 7.657 14.753 0 .385-.012.77-.036 1.147-.14 2.189.657 4.346 2.221 5.881 3.29 3.231 5.346 7.713 5.394 12.676z" fill="#43af3e"/></g><g><g><path d="m380.361 282.223c.1 10.022-8.327 18.221-18.345 18.221h-26.944c-4.742 0-8.731-8.198-8.683-18.221.024-4.963.994-9.445 2.554-12.676.738-1.535 1.115-3.692 1.05-5.881-.012-.377-.016-.762-.016-1.147 0-6.098 1.431-11.49 3.624-14.753.982-1.467 1.587-3.821 1.587-6.366v-.297c0-9.962 3.825-18.04 8.539-18.04.048 0 .096.004.144.004h.164c4.947.08 9.377 2.193 12.576 5.516 3.195 3.327 5.155 7.87 5.155 12.817 0 2.546 1.279 4.899 3.359 6.366 4.63 3.263 7.657 8.655 7.657 14.753 0 .385-.012.77-.036 1.147-.14 2.189.658 4.346 2.221 5.881 3.29 3.231 5.346 7.713 5.394 12.676z" fill="#00a23e"/></g></g><path d="m380.361 282.223c.1 10.022-8.327 18.221-18.345 18.221h-18.289v-77.38c.104 0 .204.004.309.004 4.947.08 9.377 2.193 12.576 5.516 3.195 3.327 5.155 7.87 5.155 12.817 0 2.546 1.279 4.899 3.359 6.366 4.63 3.263 7.657 8.655 7.657 14.753 0 .385-.012.77-.036 1.147-.14 2.189.657 4.346 2.221 5.881 3.289 3.23 5.345 7.712 5.393 12.675z" fill="#008839"/></g><g><g><path d="m463.106 337.151h9.766v52.321h-9.766z" fill="#ec771b"/></g><path d="m467.989 337.151h4.883v52.321h-4.883z" fill="#c55732"/><path d="m463.106 337.151h4.883v40.582h-4.883z" fill="#c55732"/><path d="m467.989 337.151h4.883v40.582h-4.883z" fill="#a44e3e"/><g><path d="m498.44 338.41c-3.73 10.97-8.18 21.6-13.3 31.84h-35.44c-10.02 0-18.44-8.2-18.35-18.23.06-4.96 2.11-9.44 5.4-12.67 1.56-1.54 2.36-3.69 2.22-5.88-.02-.38-.03-.76-.03-1.15 0-6.1 3.02-11.49 7.65-14.75 2.08-1.47 3.36-3.82 3.36-6.37v-.3c0-9.96 8.08-18.04 18.04-18.04.1 0 .2.01.31.01 4.94.08 9.37 2.19 12.57 5.52 3.2 3.32 5.16 7.86 5.16 12.81 0 2.55 1.28 4.9 3.36 6.37 4.63 3.26 7.65 8.65 7.65 14.75 0 .39-.01.77-.03 1.15-.11 1.77.39 3.52 1.43 4.94z" fill="#43af3e"/></g><g><g><path d="m498.44 338.41c-3.73 10.97-8.18 21.6-13.3 31.84h-25.81c-4.74 0-8.73-8.2-8.68-18.23.02-4.96.99-9.44 2.55-12.67.74-1.54 1.12-3.69 1.05-5.88-.01-.38-.01-.76-.01-1.15 0-6.1 1.43-11.49 3.62-14.75.98-1.47 1.59-3.82 1.59-6.37v-.3c0-9.96 3.82-18.04 8.54-18.04.05 0 .09.01.14.01h.17c4.94.08 9.37 2.19 12.57 5.52 3.2 3.32 5.16 7.86 5.16 12.81 0 2.55 1.28 4.9 3.36 6.37 4.63 3.26 7.65 8.65 7.65 14.75 0 .39-.01.77-.03 1.15-.11 1.77.39 3.52 1.43 4.94z" fill="#00a23e"/></g></g><path d="m498.44 338.41c-3.73 10.97-8.18 21.6-13.3 31.84h-17.15v-77.39c.1 0 .2.01.31.01 4.94.08 9.37 2.19 12.57 5.52 3.2 3.32 5.16 7.86 5.16 12.81 0 2.55 1.28 4.9 3.36 6.37 4.63 3.26 7.65 8.65 7.65 14.75 0 .39-.01.77-.03 1.15-.11 1.77.39 3.52 1.43 4.94z" fill="#008839"/></g><g><g><path d="m360.659 302.28h9.766v58.987h-9.766z" fill="#ec771b"/></g><path d="m365.541 302.28h4.883v58.987h-4.883z" fill="#c55732"/><path d="m360.659 302.28h4.883v40.582h-4.883z" fill="#c55732"/><path d="m365.541 302.28h4.883v40.582h-4.883z" fill="#a44e3e"/><g><path d="m402.174 317.153c.1 10.022-8.327 18.221-18.345 18.221h-36.574c-10.022 0-18.445-8.198-18.349-18.221.052-4.963 2.105-9.445 5.396-12.676 1.559-1.535 2.357-3.692 2.221-5.881-.024-.377-.036-.762-.036-1.147 0-6.098 3.023-11.49 7.657-14.753 2.081-1.467 3.359-3.821 3.359-6.366v-.297c0-9.962 8.074-18.04 18.036-18.04.104 0 .204.004.309.004 4.947.08 9.377 2.193 12.576 5.516 3.195 3.327 5.155 7.87 5.155 12.817 0 2.546 1.279 4.899 3.359 6.366 4.63 3.263 7.657 8.655 7.657 14.753 0 .385-.012.77-.036 1.147-.14 2.189.658 4.346 2.221 5.881 3.289 3.231 5.346 7.713 5.394 12.676z" fill="#43af3e"/></g><g><g><path d="m402.174 317.153c.1 10.022-8.327 18.221-18.345 18.221h-26.944c-4.743 0-8.731-8.198-8.683-18.221.024-4.963.994-9.445 2.554-12.676.738-1.535 1.115-3.692 1.05-5.881-.012-.377-.016-.762-.016-1.147 0-6.098 1.431-11.49 3.624-14.753.982-1.467 1.588-3.821 1.588-6.366v-.297c0-9.962 3.825-18.04 8.539-18.04.048 0 .096.004.144.004h.164c4.947.08 9.377 2.193 12.576 5.516 3.195 3.327 5.155 7.87 5.155 12.817 0 2.546 1.279 4.899 3.359 6.366 4.63 3.263 7.657 8.655 7.657 14.753 0 .385-.012.77-.036 1.147-.14 2.189.657 4.346 2.221 5.881 3.288 3.231 5.345 7.713 5.393 12.676z" fill="#00a23e"/></g></g><path d="m402.174 317.153c.1 10.022-8.327 18.221-18.345 18.221h-18.289v-77.38c.104 0 .204.004.309.004 4.947.08 9.377 2.193 12.576 5.516 3.195 3.327 5.155 7.87 5.155 12.817 0 2.546 1.279 4.899 3.359 6.366 4.63 3.263 7.657 8.655 7.657 14.753 0 .385-.012.77-.036 1.147-.14 2.189.658 4.346 2.221 5.881 3.288 3.23 5.345 7.712 5.393 12.675z" fill="#008839"/></g><g><g><path d="m319.792 359.978h9.766v58.987h-9.766z" fill="#ec771b"/></g><path d="m324.675 359.978h4.883v58.987h-4.883z" fill="#c55732"/><path d="m319.792 359.978h4.883v40.582h-4.883z" fill="#c55732"/><path d="m324.675 359.978h4.883v40.582h-4.883z" fill="#a44e3e"/><g><path d="m361.307 374.852c.1 10.022-8.327 18.221-18.345 18.221h-36.573c-10.022 0-18.445-8.198-18.349-18.221.052-4.963 2.105-9.445 5.396-12.676 1.559-1.535 2.357-3.692 2.221-5.881-.024-.377-.036-.762-.036-1.146 0-6.098 3.023-11.49 7.657-14.753 2.081-1.467 3.359-3.82 3.359-6.366v-.297c0-9.962 8.074-18.04 18.036-18.04.104 0 .204.004.309.004 4.947.08 9.377 2.193 12.576 5.516 3.195 3.327 5.155 7.87 5.155 12.817 0 2.546 1.279 4.899 3.359 6.366 4.63 3.263 7.657 8.655 7.657 14.753 0 .385-.012.77-.036 1.146-.14 2.189.658 4.346 2.221 5.881 3.289 3.23 5.345 7.712 5.393 12.676z" fill="#43af3e"/></g><g><g><path d="m361.307 374.852c.1 10.022-8.327 18.221-18.345 18.221h-26.944c-4.742 0-8.731-8.198-8.683-18.221.024-4.963.994-9.445 2.554-12.676.738-1.535 1.115-3.692 1.05-5.881-.012-.377-.016-.762-.016-1.146 0-6.098 1.431-11.49 3.624-14.753.982-1.467 1.587-3.82 1.587-6.366v-.297c0-9.962 3.824-18.04 8.539-18.04.048 0 .096.004.144.004h.164c4.947.08 9.377 2.193 12.576 5.516 3.195 3.327 5.155 7.87 5.155 12.817 0 2.546 1.279 4.899 3.359 6.366 4.63 3.263 7.657 8.655 7.657 14.753 0 .385-.012.77-.036 1.146-.14 2.189.657 4.346 2.221 5.881 3.29 3.23 5.346 7.712 5.394 12.676z" fill="#00a23e"/></g></g><path d="m361.307 374.852c.1 10.022-8.327 18.221-18.345 18.221h-18.289v-77.38c.104 0 .204.004.309.004 4.947.08 9.377 2.193 12.576 5.516 3.195 3.327 5.155 7.87 5.155 12.817 0 2.546 1.279 4.899 3.359 6.366 4.63 3.263 7.657 8.655 7.657 14.753 0 .385-.012.77-.036 1.146-.14 2.189.658 4.346 2.221 5.881 3.289 3.23 5.345 7.712 5.393 12.676z" fill="#008839"/></g><g><g><path d="m358.494 398.351h10.994v66.404h-10.994z" fill="#ec771b"/></g><path d="m363.991 398.351h5.497v66.404h-5.497z" fill="#c55732"/><path d="m358.494 398.351h5.497v45.685h-5.497z" fill="#c55732"/><path d="m363.991 398.351h5.497v45.685h-5.497z" fill="#a44e3e"/><g><path d="m405.23 415.094c.113 11.283-9.374 20.512-20.651 20.512h-41.172c-11.283 0-20.764-9.229-20.656-20.512.059-5.587 2.369-10.633 6.074-14.27 1.756-1.728 2.654-4.156 2.5-6.621-.027-.424-.041-.857-.041-1.291 0-6.864 3.403-12.934 8.62-16.608 2.342-1.652 3.782-4.301 3.782-7.167v-.334c0-11.215 9.089-20.309 20.304-20.309.117 0 .23.004.347.004 5.569.09 10.556 2.469 14.157 6.21 3.597 3.746 5.804 8.859 5.804 14.428 0 2.866 1.44 5.515 3.782 7.167 5.212 3.674 8.62 9.743 8.62 16.608 0 .433-.014.866-.041 1.291-.158 2.464.74 4.892 2.5 6.621 3.702 3.638 6.017 8.684 6.071 14.271z" fill="#43af3e"/></g><g><g><path d="m405.23 415.094c.113 11.283-9.374 20.512-20.651 20.512h-30.332c-5.339 0-9.829-9.229-9.775-20.512.027-5.587 1.119-10.633 2.875-14.27.83-1.728 1.255-4.156 1.182-6.621-.014-.424-.018-.857-.018-1.291 0-6.864 1.611-12.934 4.08-16.608 1.106-1.652 1.787-4.301 1.787-7.167v-.334c0-11.215 4.305-20.309 9.613-20.309.054 0 .108.004.162.004h.185c5.569.09 10.556 2.469 14.157 6.21 3.597 3.746 5.804 8.859 5.804 14.428 0 2.866 1.44 5.515 3.782 7.167 5.212 3.674 8.62 9.743 8.62 16.608 0 .433-.014.866-.041 1.291-.158 2.464.74 4.892 2.5 6.621 3.7 3.638 6.016 8.684 6.07 14.271z" fill="#00a23e"/></g></g><path d="m405.23 415.094c.113 11.283-9.374 20.512-20.651 20.512h-20.589v-87.11c.117 0 .23.004.347.004 5.569.09 10.556 2.469 14.157 6.21 3.597 3.746 5.804 8.859 5.804 14.428 0 2.866 1.44 5.515 3.782 7.167 5.212 3.674 8.62 9.743 8.62 16.608 0 .433-.014.866-.041 1.291-.158 2.464.74 4.892 2.5 6.621 3.702 3.636 6.017 8.682 6.071 14.269z" fill="#008839"/></g><g><g><path d="m463.28 406.26c-5.64 7.77-11.71 15.22-18.17 22.29-5.9 6.46-12.13 12.62-18.66 18.45-1.53 1.36-3.07 2.71-4.63 4.03h-18.54c-12.71 0-23.38-10.39-23.26-23.09.07-6.29 2.67-11.97 6.84-16.06 1.98-1.95 2.99-4.68 2.81-7.46-.03-.47-.04-.96-.04-1.45 0-7.73 3.83-14.56 9.7-18.69 2.64-1.86 4.26-4.85 4.26-8.07v-.38c0-12.62 10.23-22.86 22.86-22.86.13 0 .26.01.39.01 6.27.1 11.88 2.77 15.93 6.99 4.05 4.21 6.54 9.97 6.54 16.24 0 3.22 1.62 6.21 4.26 8.07 5.86 4.13 9.7 10.96 9.7 18.69 0 .49-.02.98-.05 1.45-.04.62-.02 1.24.06 1.84z" fill="#43af3e"/></g><g><g><path d="m463.28 406.26c-5.64 7.77-11.71 15.22-18.17 22.29-5.9 6.46-12.13 12.62-18.66 18.45-1.53 1.36-3.07 2.71-4.63 4.03h-6.34c-6.01 0-11.07-10.39-11.01-23.09.03-6.29 1.26-11.97 3.24-16.06.93-1.95 1.41-4.68 1.33-7.46-.01-.47-.02-.96-.02-1.45 0-7.73 1.81-14.56 4.59-18.69 1.25-1.86 2.02-4.85 2.02-8.07v-.38c0-12.62 4.84-22.86 10.82-22.86.06 0 .12.01.18.01h.21c6.27.1 11.88 2.77 15.93 6.99 4.05 4.21 6.54 9.97 6.54 16.24 0 3.22 1.62 6.21 4.26 8.07 5.86 4.13 9.7 10.96 9.7 18.69 0 .49-.02.98-.05 1.45-.04.62-.02 1.24.06 1.84z" fill="#00a23e"/></g></g><path d="m463.28 406.26c-5.64 7.77-11.71 15.22-18.17 22.29-5.9 6.46-12.13 12.62-18.66 18.45v-94.03c.13 0 .26.01.39.01 6.27.1 11.88 2.77 15.93 6.99 4.05 4.21 6.54 9.97 6.54 16.24 0 3.22 1.62 6.21 4.26 8.07 5.86 4.13 9.7 10.96 9.7 18.69 0 .49-.02.98-.05 1.45-.04.62-.02 1.24.06 1.84z" fill="#008839"/></g></g><path d="m256 380.68v-10.82c17.55-12.07 28.73-21 28.78-30.51.06-9.41-12.75-18.29-28.78-27.29v-6.54c19.95 10.64 37.57 21.52 38.52 33.67.94 12.13-18.44 27.4-38.52 41.49z" fill="#ffc300"/></g></svg>